<svg width="48" height="48" viewBox="0 0 48 48" fill="none" xmlns="http://www.w3.org/2000/svg">
<path d="M36 16C36 12.8174 34.7357 9.76516 32.4853 7.51472C30.2348 5.26428 27.1826 4 24 4C20.8174 4 17.7652 5.26428 15.5147 7.51472C13.2643 9.76516 12 12.8174 12 16C12 30 6 34 6 34H42C42 34 36 30 36 16Z" stroke="url(#paint0_linear_254_19476)" stroke-width="4" stroke-linecap="round" stroke-linejoin="round"/>
<path d="M27.4591 42C27.1074 42.6062 26.6027 43.1093 25.9955 43.4591C25.3883 43.8088 24.6998 43.9929 23.9991 43.9929C23.2983 43.9929 22.6098 43.8088 22.0026 43.4591C21.3954 43.1093 20.8907 42.6062 20.5391 42" stroke="url(#paint1_linear_254_19476)" stroke-width="4" stroke-linecap="round" stroke-linejoin="round"/>
<defs>
<linearGradient id="paint0_linear_254_19476" x1="6" y1="19" x2="42" y2="19" gradientUnits="userSpaceOnUse">
<stop stop-color="#6A11CB"/>
<stop offset="1" stop-color="#2575FC"/>
</linearGradient>
<linearGradient id="paint1_linear_254_19476" x1="20.5391" y1="42.9965" x2="27.4591" y2="42.9965" gradientUnits="userSpaceOnUse">
<stop stop-color="#6A11CB"/>
<stop offset="1" stop-color="#2575FC"/>
</linearGradient>
</defs>
</svg>
