<svg width="32" height="32" viewBox="0 0 32 32" fill="none" xmlns="http://www.w3.org/2000/svg">
<path d="M16.7852 21.5984C10.772 21.5984 7.34213 17.3942 7.19922 10.3984H10.2113C10.3103 15.5332 12.5309 17.7081 14.2898 18.1566V10.3984H17.126V14.8269C18.8629 14.6363 20.6878 12.6183 21.3034 10.3984H24.1396C23.9076 11.5497 23.4452 12.6398 22.7813 13.6004C22.1174 14.5611 21.2662 15.3717 20.281 15.9816C21.3807 16.5389 22.352 17.3276 23.1308 18.2958C23.9096 19.264 24.4783 20.3897 24.7992 21.5984H21.6772C21.3891 20.5485 20.8035 19.6087 19.9939 18.8967C19.1843 18.1847 18.1867 17.7323 17.126 17.596V21.5984H16.7852Z" fill="white"/>
</svg>
