<svg width="48" height="48" viewBox="0 0 48 48" fill="none" xmlns="http://www.w3.org/2000/svg">
<path d="M36 16C36 12.8174 34.7357 9.76516 32.4853 7.51472C30.2348 5.26428 27.1826 4 24 4C20.8174 4 17.7652 5.26428 15.5147 7.51472C13.2643 9.76516 12 12.8174 12 16C12 30 6 34 6 34H42C42 34 36 30 36 16Z" stroke="url(#paint0_linear_71_1743)" stroke-width="4" stroke-linecap="round" stroke-linejoin="round"/>
<path d="M27.46 42C27.1084 42.6062 26.6037 43.1093 25.9965 43.4591C25.3893 43.8088 24.7008 43.9929 24 43.9929C23.2993 43.9929 22.6108 43.8088 22.0036 43.4591C21.3964 43.1093 20.8917 42.6062 20.54 42" stroke="url(#paint1_linear_71_1743)" stroke-width="4" stroke-linecap="round" stroke-linejoin="round"/>
<defs>
<linearGradient id="paint0_linear_71_1743" x1="6" y1="19" x2="42" y2="19" gradientUnits="userSpaceOnUse">
<stop stop-color="#6A11CB"/>
<stop offset="1" stop-color="#2575FC"/>
</linearGradient>
<linearGradient id="paint1_linear_71_1743" x1="20.54" y1="42.9965" x2="27.46" y2="42.9965" gradientUnits="userSpaceOnUse">
<stop stop-color="#6A11CB"/>
<stop offset="1" stop-color="#2575FC"/>
</linearGradient>
</defs>
</svg>
