<svg width="286" height="286" viewBox="0 0 286 286" fill="none" xmlns="http://www.w3.org/2000/svg">
<path d="M130.785 19.8497C122.588 20.8456 111.748 23.5268 103.82 26.5145C98.0741 28.6978 87.0044 34.4433 81.4887 38.1205C53.2206 56.9658 34.4519 87.9151 30.6215 122.082C29.8937 128.402 29.8937 141.961 30.5832 148.511C31.1961 154.104 32.2686 160.424 32.8048 161.42C33.1112 162.071 35.7159 162.109 77.6966 162.109C119.601 162.109 122.282 162.071 122.818 161.42C123.431 160.769 124.657 158.509 124.657 158.087C124.657 157.972 123.546 157.896 122.205 157.896C120.328 157.896 119.716 157.743 119.524 157.283C119.409 156.938 119.294 154.678 119.294 152.189C119.294 149.201 119.141 147.554 118.835 147.247C118.183 146.596 106.233 146.596 105.582 147.247C105.313 147.515 105.122 148.167 105.122 148.779C105.122 150.35 104.164 150.618 98.9551 150.618C96.3887 150.618 93.7458 150.771 93.0946 151.001C92.4435 151.193 91.4093 151.461 90.7964 151.576C90.1836 151.729 89.6473 152.112 89.5324 152.572C89.4175 152.993 88.8812 153.414 88.3067 153.529C86.8128 153.836 86.1617 154.257 86.0085 155.061C85.9319 155.444 85.702 155.904 85.4339 156.057C84.936 156.402 75.5516 156.479 74.7089 156.134C74.2876 155.981 74.0961 155.368 74.0961 154.104C74.0578 150.58 72.2192 148.205 68.6187 147.094C65.9757 146.29 62.3369 148.128 61.2261 150.886C60.6132 152.342 60.5366 155.483 61.0728 156.9C61.4176 157.819 61.341 157.896 60.4983 157.896C59.6939 157.896 59.4641 157.589 58.7746 155.291C54.8294 142.498 54.2931 125.184 57.434 109.94C58.5065 104.615 61.7623 94.8481 63.7541 90.8645C64.5202 89.294 65.3245 87.5704 65.4778 87.0341C65.8608 85.6935 70.687 77.9179 73.6364 73.8194C77.237 68.8782 79.4586 66.3885 84.2848 61.9836C94.5502 52.5609 102.058 48.0794 115.885 43.0616C122.244 40.7634 125.002 40.1506 135.343 38.9631C139.404 38.5035 152.312 38.7333 156.832 39.3462C172.23 41.4912 185.061 46.5856 197.74 55.5103C201.8 58.3831 210.648 66.7715 213.942 70.8317C222.637 81.6716 228.613 94.082 232.137 108.676C235.469 122.503 235.239 139.663 231.524 153.261C230.413 157.321 229.762 158.355 228.498 158.011C227.847 157.857 227.847 157.704 228.345 155.636C229.264 151.92 228 148.933 224.859 147.515C219.65 145.141 214.019 149.622 215.398 155.023C215.628 155.904 215.896 156.938 216.049 157.283C216.241 157.819 215.934 157.896 213.559 157.896C211.338 157.896 210.687 157.743 210.074 157.13C209.537 156.593 208.81 156.364 207.546 156.364C204.52 156.364 204.328 156.095 204.328 151.959C204.328 149.201 204.175 148.243 203.715 147.784C203.217 147.247 201.915 147.171 195.557 147.171C190.194 147.171 187.896 147.286 187.551 147.63C187.283 147.899 187.092 148.971 187.092 150.044C187.092 153.797 187.206 153.682 182.342 153.682H178.052L177.209 152.533C176.405 151.461 176.175 151.384 173.953 151.384C172.575 151.384 171.349 151.576 171.081 151.844C170.813 152.112 170.621 153.299 170.621 154.487C170.621 157.398 170.085 157.896 167.135 157.896C165.91 157.896 164.876 157.972 164.876 158.087C164.876 158.547 166.523 161.535 166.944 161.803C167.174 161.956 187.59 162.109 212.257 162.109H257.187L257.723 161.228C258.451 160.117 259.753 152.074 260.29 145.447C260.826 138.935 260.52 125.223 259.715 119.592C257.953 107.22 254.697 96.4951 249.297 85.1956C245.428 77.1135 241.1 70.2189 234.128 60.9877C231.677 57.7702 220.301 46.5089 216.164 43.2531C200.076 30.5364 179.852 22.1862 159.551 19.8114C153.423 19.0836 136.952 19.1219 130.785 19.8497Z" fill="#767487"/>
<path d="M133.045 121.699C133.045 121.699 132.969 124.38 132.892 127.636C132.739 134.607 132.356 137.557 130.594 144.298C129.138 149.852 127.3 154.87 125.27 158.815C123.891 161.42 123.891 162.492 125.155 161.994C125.691 161.803 127.453 157.551 129.445 151.767C130.785 147.937 132.586 140.544 132.854 137.748C133.467 132.271 133.467 132.232 134.309 132.232C135.075 132.232 135.114 132.347 134.846 135.909C134.501 140.736 132.394 150.733 130.517 156.555C129.675 159.083 129.062 161.381 129.177 161.649C129.292 161.994 132.969 162.109 144.958 162.109C153.576 162.109 160.701 161.956 160.815 161.803C160.93 161.611 160.318 159.39 159.513 156.862C157.177 149.546 154.917 138.246 154.917 133.803C154.917 132.5 155.032 132.232 155.683 132.232C156.104 132.232 156.449 132.462 156.487 132.692C156.679 138.169 158.939 147.975 161.811 155.981C163.573 160.883 164.224 162.109 165.105 162.109C165.948 162.109 165.603 160.883 163.765 156.938C159.743 148.435 157.636 139.28 157.253 128.479L157.023 121.89L145.034 121.775C138.484 121.737 133.084 121.699 133.045 121.699ZM146.643 133.075C147.026 134.531 146.911 156.632 146.49 157.666C145.915 159.236 144.69 158.968 144.192 157.13C143.77 155.598 143.655 134.607 144.077 133.037C144.383 131.888 146.298 131.888 146.643 133.075Z" fill="#767487"/>
<path d="M93.6309 176.473V186.624H101.292H108.952V184.67V182.755L103.398 182.87L97.8443 182.985V180.38V177.814H102.594C107.688 177.814 107.688 177.814 107.65 175.707L107.612 174.558L102.747 174.443L97.8443 174.328V172.068V169.77H103.207H108.569V168.046V166.323H101.1H93.6309V176.473Z" fill="#767487"/>
<path d="M110.944 166.782C111.059 167.05 112.591 171.647 114.353 176.971L117.571 186.662L119.639 186.547L121.669 186.432L125.078 176.473C126.955 170.996 128.487 166.476 128.487 166.438C128.487 166.361 127.491 166.323 126.304 166.323H124.082L122.014 173.6C120.903 177.622 119.831 180.878 119.678 180.878C119.524 180.878 118.49 177.584 117.341 173.6L115.311 166.323H113.051C111.404 166.323 110.829 166.438 110.944 166.782Z" fill="#767487"/>
<path d="M134.233 166.744C134.233 167.05 128.755 182.678 127.453 186.126C127.3 186.509 127.874 186.624 129.521 186.624H131.781L132.471 184.517L133.122 182.41H136.876H140.591L141.281 184.517L141.932 186.624H144.23C145.456 186.624 146.49 186.585 146.49 186.509C146.452 186.47 144.881 181.95 142.928 176.473L139.404 166.514L136.799 166.399C135.037 166.323 134.233 166.438 134.233 166.744ZM138.216 175.171C138.753 176.971 139.212 178.541 139.212 178.695C139.212 178.848 138.101 178.963 136.761 178.963H134.348L135.497 175.132C136.148 173.026 136.799 171.417 136.952 171.609C137.106 171.762 137.68 173.332 138.216 175.171Z" fill="#767487"/>
<path d="M149.554 174.06C149.554 181.108 149.631 181.951 150.359 183.406C150.78 184.364 151.699 185.436 152.465 185.896C153.959 186.815 157.368 187.236 160.088 186.853C162.309 186.509 164.684 184.517 165.259 182.487C165.45 181.682 165.642 177.737 165.642 173.677V166.323H163.573H161.467L161.352 174.022L161.237 181.721L160.164 182.64C158.249 184.287 154.917 183.674 154.151 181.529C153.959 180.878 153.768 177.277 153.768 173.371V166.323H151.661H149.554V174.06Z" fill="#767487"/>
<path d="M169.855 176.473V186.624H176.941H184.027V184.67V182.755L179.048 182.87L174.068 182.985V174.635V166.323H171.962H169.855V176.473Z" fill="#767487"/>
<path d="M182.878 168.046V169.77H185.943H189.007V178.197V186.624H191.114H193.22L193.297 178.273L193.412 169.961L196.4 169.847L199.349 169.732V168.046V166.323H191.114H182.878V168.046Z" fill="#767487"/>
<path d="M35.4094 170.115C35.4094 172.298 34.5667 172.221 60.6131 172.106C78.386 172.03 84.7061 171.877 84.8976 171.57C85.0508 171.302 85.204 170.651 85.204 170.038V169.004H60.3067H35.4094V170.115Z" fill="#767487"/>
<path d="M205.171 170.421L205.286 171.877L229.57 171.992C247.19 172.03 254.008 171.953 254.353 171.647C254.659 171.417 254.889 170.728 254.889 170.115V169.004H229.953H205.056L205.171 170.421Z" fill="#767487"/>
<path d="M37.7075 176.282C37.7075 177.546 38.5885 178.963 39.5078 179.193C40.0057 179.346 48.2027 179.346 57.7403 179.269L75.0535 179.078L78.6923 177.89C83.3271 176.396 83.6718 176.282 83.6718 175.86C83.6718 175.669 73.9044 175.516 60.6897 175.516C38.1289 175.516 37.7075 175.516 37.7075 176.282Z" fill="#767487"/>
<path d="M206.703 175.975C206.818 176.243 208.58 177.048 210.687 177.814L214.479 179.154L232.29 179.269C242.096 179.346 250.484 179.269 250.944 179.154C251.901 178.924 253.127 176.894 252.821 176.052C252.629 175.592 249.067 175.515 229.57 175.515C211.721 175.515 206.588 175.63 206.703 175.975Z" fill="#767487"/>
<path d="M40.772 183.406C40.772 184.134 42.8021 188.424 44.3342 190.913C44.9854 191.986 45.7131 192.752 46.0962 192.752C46.4792 192.752 49.9648 191.22 53.8335 189.343C57.7022 187.504 62.0305 185.436 63.486 184.785C64.9032 184.134 66.0523 183.406 66.0523 183.214C66.0523 182.908 61.9922 182.793 53.4122 182.793C42.1892 182.793 40.772 182.87 40.772 183.406Z" fill="#767487"/>
<path d="M223.557 183.253C223.672 183.521 227.579 185.474 232.328 187.581C237.04 189.726 241.444 191.756 242.134 192.101C243.819 192.982 245.007 192.905 245.658 191.909C247.037 189.726 249.91 183.483 249.718 183.176C249.335 182.563 223.365 182.678 223.557 183.253Z" fill="#767487"/>
<path d="M88.4599 190.913C88.0386 191.143 86.3915 192.407 84.8211 193.71C83.2506 195.012 80.9141 196.927 79.6501 197.961C66.5503 208.533 61.5325 212.708 61.341 213.206C61.0729 213.857 62.3752 215.121 63.1029 214.853C63.5243 214.7 66.1672 212.478 80.9907 199.915C83.2123 198.038 86.3532 195.357 88.0003 194.016C89.609 192.637 90.9496 191.296 90.9496 190.99C90.9496 190.339 89.5324 190.301 88.4599 190.913Z" fill="#767487"/>
<path d="M123.891 190.837C122.933 190.99 120.444 191.028 118.337 190.952L114.468 190.722L113.357 192.063C112.208 193.403 107.42 199.532 102.096 206.503C96.3506 214.011 90.4135 221.671 90.1837 221.863C89.3027 222.591 83.2891 231.056 83.2891 231.554C83.2891 232.358 85.5873 234.043 89.8007 236.303C91.6009 237.299 93.4778 238.372 94.0141 238.716C96.3123 240.248 106.961 244.424 112.17 245.841C127.262 249.939 130.249 250.361 144.575 250.361C151.163 250.399 156.679 250.207 159.322 249.901C168.476 248.752 179.048 246.071 188.203 242.47C190.884 241.436 201.992 236.073 202.413 235.652C202.528 235.537 203.601 234.848 204.826 234.12C206.052 233.392 207.316 232.473 207.661 232.128C208.197 231.515 208.197 231.362 207.661 230.519C207.01 229.523 196.514 215.849 191.726 209.797C188.241 205.354 183.836 199.647 180.542 195.242C176.826 190.301 179.546 190.76 155.606 190.875C144.153 190.913 134.118 190.99 133.275 190.99C132.433 190.99 130.364 190.875 128.679 190.76C126.993 190.645 124.848 190.684 123.891 190.837Z" fill="#767487"/>
<path d="M180.503 190.722C180.12 190.799 179.814 191.105 179.814 191.335C179.814 191.603 181.078 193.365 182.61 195.242C184.104 197.157 190.577 205.354 196.936 213.436C209.499 229.485 209.844 229.906 210.61 229.906C211.491 229.906 215.819 226.497 215.819 225.808C215.819 225.463 214.402 223.701 212.678 221.901C209.576 218.684 203.486 212.095 190.539 198C187.13 194.246 183.989 191.028 183.606 190.837C182.917 190.454 181.691 190.416 180.503 190.722Z" fill="#767487"/>
<path d="M187.092 190.952C187.092 191.565 216.126 222.706 217.581 223.625C218.501 224.238 218.577 224.238 219.918 223.127C222.523 221.058 222.523 221.097 218.501 217.381C216.509 215.504 210.227 209.606 204.597 204.243C191.229 191.526 189.965 190.454 188.356 190.454C187.551 190.454 187.092 190.645 187.092 190.952Z" fill="#767487"/>
<path d="M193.986 190.99C193.986 191.258 198.506 195.702 204.06 200.873C219.994 215.696 223.403 218.799 224.055 218.799C224.821 218.799 226.544 217.113 226.544 216.385C226.544 216.079 223.059 212.9 218.807 209.376C214.555 205.814 208.005 200.298 204.252 197.08C200.498 193.863 197.127 191.067 196.706 190.837C195.633 190.262 193.986 190.339 193.986 190.99Z" fill="#767487"/>
<path d="M200.574 190.913C200.651 191.182 202.643 192.943 204.979 194.859C210.074 198.995 222.254 208.993 225.625 211.789C228.268 214.01 229.264 214.279 230.183 212.938C230.758 212.134 230.719 212.057 229.455 210.908C227.808 209.491 207.929 194.361 204.673 192.063C202.451 190.53 200.268 189.918 200.574 190.913Z" fill="#767487"/>
<path d="M90.1071 194.705C87.7322 196.85 81.0674 202.711 75.3602 207.767C69.6147 212.823 64.9033 217.075 64.9033 217.266C64.9033 217.688 67.1632 219.564 67.6229 219.564C68.0825 219.564 69.8445 217.917 85.5106 202.979C91.869 196.889 97.0783 191.641 97.0783 191.373C97.0783 191.028 96.6187 190.837 95.776 190.837C94.6652 190.837 93.8225 191.411 90.1071 194.705Z" fill="#767487"/>
<path d="M99.9128 191.641C99.5298 192.101 92.6351 198.842 84.6297 206.656C76.6243 214.47 69.9977 221.097 69.9594 221.403C69.7679 222.169 71.798 224.161 72.7939 224.161C73.6366 224.161 76.8541 220.905 93.0565 203.477C103.59 192.139 103.973 191.718 103.973 191.258C103.973 191.028 103.284 190.837 102.326 190.837C101.1 190.837 100.449 191.067 99.9128 191.641Z" fill="#767487"/>
<path d="M100.832 198C97.1931 201.945 90.9113 208.725 86.8894 213.053C82.8675 217.381 78.6158 221.978 77.4284 223.242C76.2027 224.544 75.2451 225.846 75.2451 226.153C75.2451 226.881 79.5351 229.906 80.5693 229.906C81.1056 229.906 82.4462 228.528 84.9359 225.387C90.7964 218.071 95.5077 212.057 99.9509 206.35C102.249 203.4 105.811 198.842 107.88 196.238C109.948 193.671 111.519 191.373 111.404 191.182C111.289 190.99 110.369 190.837 109.335 190.837H107.458L100.832 198Z" fill="#767487"/>
</svg>
