<svg width="82" height="82" viewBox="0 0 82 82" fill="none" xmlns="http://www.w3.org/2000/svg">
<path d="M35.7305 0.938618C32.8644 1.28683 29.0742 2.22433 26.3019 3.26897C24.293 4.03237 20.4225 6.0413 18.4939 7.32701C8.60997 13.9163 2.04747 24.7377 0.708181 36.6842C0.453717 38.894 0.453717 43.635 0.694788 45.9252C0.909074 47.8806 1.28407 50.0904 1.47157 50.4386C1.57872 50.6663 2.48943 50.6797 17.168 50.6797C31.8198 50.6797 32.7573 50.6663 32.9448 50.4386C33.1591 50.2109 33.5876 49.4208 33.5876 49.2734C33.5876 49.2333 33.1992 49.2065 32.7305 49.2065C32.0742 49.2065 31.86 49.1529 31.793 48.9922C31.7528 48.8717 31.7126 48.0815 31.7126 47.2109C31.7126 46.1663 31.6591 45.5904 31.5519 45.4833C31.3242 45.2556 27.1457 45.2556 26.918 45.4833C26.8242 45.577 26.7573 45.8047 26.7573 46.019C26.7573 46.5681 26.4225 46.6618 24.601 46.6618C23.7037 46.6618 22.7796 46.7154 22.5519 46.7958C22.3243 46.8627 21.9626 46.9565 21.7484 46.9967C21.5341 47.0502 21.3466 47.1842 21.3064 47.3449C21.2662 47.4922 21.0787 47.6395 20.8778 47.6797C20.3555 47.7868 20.1278 47.9342 20.0743 48.2154C20.0475 48.3493 19.9671 48.51 19.8734 48.5636C19.6993 48.6842 16.418 48.7109 16.1234 48.5904C15.976 48.5368 15.9091 48.3225 15.9091 47.8806C15.8957 46.6484 15.2528 45.8181 13.9939 45.4297C13.0698 45.1484 11.7975 45.7913 11.4091 46.7556C11.1948 47.2645 11.168 48.3627 11.3555 48.8583C11.476 49.1797 11.4493 49.2065 11.1546 49.2065C10.8734 49.2065 10.793 49.0993 10.5519 48.2958C9.17247 43.8225 8.98497 37.769 10.0832 32.4386C10.4582 30.577 11.5966 27.1618 12.293 25.769C12.5609 25.2199 12.8421 24.6172 12.8957 24.4297C13.0296 23.9609 14.7171 21.2422 15.7484 19.8092C17.0073 18.0815 17.7841 17.2109 19.4716 15.6708C23.0609 12.3761 25.6859 10.8092 30.5207 9.05469C32.7439 8.25112 33.7082 8.03683 37.3242 7.62165C38.7439 7.46094 43.2573 7.5413 44.8376 7.75558C50.2216 8.50558 54.7082 10.2868 59.1412 13.4074C60.5609 14.4118 63.6546 17.3449 64.8064 18.7645C67.8466 22.5547 69.9359 26.894 71.168 31.9967C72.3332 36.8315 72.2528 42.8315 70.9537 47.5859C70.5653 49.0056 70.3376 49.3672 69.8957 49.2467C69.668 49.1931 69.668 49.1395 69.8421 48.4163C70.1635 47.1172 69.7216 46.0725 68.6234 45.577C66.8019 44.7467 64.8332 46.3136 65.3153 48.202C65.3957 48.51 65.4894 48.8717 65.543 48.9922C65.61 49.1797 65.5028 49.2065 64.6725 49.2065C63.8957 49.2065 63.668 49.1529 63.4537 48.9386C63.2662 48.7511 63.0117 48.6708 62.5698 48.6708C61.5117 48.6708 61.4448 48.577 61.4448 47.1306C61.4448 46.1663 61.3912 45.8315 61.2305 45.6708C61.0564 45.4833 60.601 45.4565 58.3778 45.4565C56.5028 45.4565 55.6992 45.4967 55.5787 45.6172C55.485 45.7109 55.418 46.0859 55.418 46.4609C55.418 47.7734 55.4582 47.7333 53.7573 47.7333H52.2573L51.9626 47.3315C51.6814 46.9565 51.601 46.9297 50.8242 46.9297C50.3421 46.9297 49.9135 46.9967 49.8198 47.0904C49.726 47.1842 49.6591 47.5993 49.6591 48.0145C49.6591 49.0324 49.4716 49.2065 48.4403 49.2065C48.0117 49.2065 47.6501 49.2333 47.6501 49.2734C47.6501 49.4342 48.226 50.4788 48.3734 50.5725C48.4537 50.6261 55.5921 50.6797 64.2171 50.6797H79.9269L80.1144 50.3717C80.3689 49.9833 80.8242 47.1708 81.0117 44.8538C81.1992 42.577 81.0921 37.7824 80.8108 35.8136C80.1948 31.4877 79.0564 27.7377 77.168 23.7868C75.8153 20.9609 74.3019 18.5502 71.8644 15.3225C71.0073 14.1975 67.0296 10.26 65.5832 9.12165C59.9582 4.67522 52.8867 1.75558 45.7885 0.925224C43.6457 0.670761 37.8867 0.684155 35.7305 0.938618Z" fill="white"/>
<path d="M36.5191 36.5489C36.5191 36.5489 36.4924 37.4864 36.4656 38.6248C36.412 41.0623 36.2781 42.0936 35.662 44.4507C35.1531 46.3927 34.5102 48.1472 33.8004 49.5266C33.3182 50.4373 33.3182 50.8123 33.7602 50.6382C33.9477 50.5713 34.5638 49.0847 35.2602 47.0623C35.729 45.7231 36.3584 43.1382 36.4522 42.1606C36.6665 40.2454 36.6665 40.232 36.9611 40.232C37.229 40.232 37.2424 40.2722 37.1486 41.5177C37.0281 43.2052 36.2915 46.7007 35.6352 48.7364C35.3406 49.6204 35.1263 50.4239 35.1665 50.5177C35.2066 50.6382 36.4924 50.6784 40.6843 50.6784C43.6977 50.6784 46.1888 50.6248 46.229 50.5713C46.2691 50.5043 46.0549 49.7275 45.7736 48.8436C44.9566 46.2856 44.1665 42.3347 44.1665 40.7811C44.1665 40.3257 44.2066 40.232 44.4343 40.232C44.5816 40.232 44.7022 40.3123 44.7156 40.3927C44.7825 42.3079 45.5727 45.7364 46.5772 48.5356C47.1932 50.2498 47.4209 50.6784 47.729 50.6784C48.0236 50.6784 47.9031 50.2498 47.2602 48.8704C45.854 45.8972 45.1174 42.6963 44.9834 38.9195L44.9031 36.6159L40.7111 36.5757C38.4209 36.5623 36.5325 36.5489 36.5191 36.5489ZM41.2736 40.5266C41.4075 41.0356 41.3674 48.7632 41.22 49.1248C41.0191 49.6739 40.5906 49.5802 40.4165 48.9373C40.2691 48.4016 40.229 41.0623 40.3763 40.5132C40.4834 40.1114 41.1531 40.1114 41.2736 40.5266Z" fill="white"/>
<path d="M22.7383 55.7009V59.25H25.4169H28.0954V58.567V57.8973L26.1535 57.9375L24.2115 57.9777V57.067V56.1696H25.8722C27.6535 56.1696 27.6535 56.1696 27.6401 55.433L27.6267 55.0313L25.9258 54.9911L24.2115 54.9509V54.1607V53.3571H26.0865H27.9615V52.7545V52.1518H25.3499H22.7383V55.7009Z" fill="white"/>
<path d="M28.794 52.3147C28.8342 52.4085 29.3699 54.0156 29.986 55.8772L31.111 59.2656L31.8342 59.2254L32.544 59.1853L33.736 55.7031C34.3922 53.7879 34.9279 52.2076 34.9279 52.1942C34.9279 52.1674 34.5797 52.154 34.1645 52.154H33.3878L32.6645 54.6987C32.2762 56.1049 31.9012 57.2433 31.8476 57.2433C31.794 57.2433 31.4324 56.0915 31.0306 54.6987L30.3208 52.154H29.5306C28.9547 52.154 28.7538 52.1942 28.794 52.3147Z" fill="white"/>
<path d="M36.9375 52.2991C36.9375 52.4062 35.0223 57.8705 34.5669 59.0759C34.5133 59.2098 34.7142 59.25 35.2901 59.25H36.0803L36.3214 58.5134L36.5491 57.7768H37.8616H39.1607L39.4017 58.5134L39.6294 59.25H40.433C40.8616 59.25 41.2232 59.2366 41.2232 59.2098C41.2098 59.1964 40.6607 57.6161 39.9776 55.7009L38.7455 52.2187L37.8348 52.1786C37.2187 52.1518 36.9375 52.192 36.9375 52.2991ZM38.3303 55.2455C38.5178 55.875 38.6785 56.4241 38.6785 56.4777C38.6785 56.5312 38.2901 56.5714 37.8214 56.5714H36.9776L37.3794 55.2321C37.6071 54.4955 37.8348 53.933 37.8883 54C37.9419 54.0536 38.1428 54.6027 38.3303 55.2455Z" fill="white"/>
<path d="M42.293 54.8602C42.293 57.3245 42.3198 57.6191 42.5742 58.1281C42.7215 58.4629 43.043 58.8379 43.3108 58.9986C43.8331 59.32 45.0251 59.4674 45.976 59.3334C46.7528 59.2129 47.5831 58.5165 47.784 57.8066C47.851 57.5254 47.918 56.1459 47.918 54.7263V52.1549H47.1948H46.4581L46.418 54.8468L46.3778 57.5388L46.0028 57.8602C45.3331 58.4361 44.168 58.2218 43.9001 57.4718C43.8331 57.2441 43.7662 55.9852 43.7662 54.6191V52.1549H43.0296H42.293V54.8602Z" fill="white"/>
<path d="M49.3906 55.7009V59.25H51.8683H54.346V58.567V57.8973L52.6049 57.9375L50.8638 57.9777V55.058V52.1518H50.1272H49.3906V55.7009Z" fill="white"/>
<path d="M53.9453 52.7545V53.3571H55.0167H56.0882V56.3036V59.25H56.8248H57.5614L57.5882 56.3304L57.6283 53.4241L58.673 53.3839L59.7042 53.3438V52.7545V52.1518H56.8248H53.9453V52.7545Z" fill="white"/>
<path d="M2.3839 53.4786C2.3839 54.242 2.08926 54.2152 11.1964 54.1751C17.4107 54.1483 19.6205 54.0947 19.6875 53.9876C19.741 53.8938 19.7946 53.6661 19.7946 53.4518V53.0902H11.0893H2.3839V53.4786Z" fill="white"/>
<path d="M61.7394 53.5883L61.7796 54.0973L70.2706 54.1374C76.4314 54.1508 78.8153 54.124 78.9358 54.0169C79.043 53.9365 79.1233 53.6955 79.1233 53.4812V53.0928H70.4046H61.6992L61.7394 53.5883Z" fill="white"/>
<path d="M3.1875 55.637C3.1875 56.0789 3.49554 56.5745 3.81696 56.6548C3.99107 56.7084 6.85714 56.7084 10.192 56.6816L16.2455 56.6147L17.5179 56.1995C19.1384 55.6772 19.2589 55.637 19.2589 55.4897C19.2589 55.4227 15.8438 55.3691 11.2232 55.3691C3.33482 55.3691 3.1875 55.3691 3.1875 55.637Z" fill="white"/>
<path d="M62.2741 55.5288C62.3143 55.6226 62.9303 55.9038 63.667 56.1717L64.9928 56.6404L71.2205 56.6806C74.6491 56.7074 77.5821 56.6806 77.7428 56.6404C78.0777 56.5601 78.5062 55.8503 78.3991 55.5556C78.3321 55.3949 77.0866 55.3681 70.2696 55.3681C64.0286 55.3681 62.2339 55.4083 62.2741 55.5288Z" fill="white"/>
<path d="M4.25781 58.1267C4.25781 58.3811 4.96763 59.8811 5.50335 60.7517C5.73103 61.1267 5.98549 61.3945 6.11942 61.3945C6.25335 61.3945 7.4721 60.8588 8.82478 60.2026C10.1775 59.5597 11.6908 58.8365 12.1998 58.6088C12.6953 58.3811 13.0971 58.1267 13.0971 58.0597C13.0971 57.9526 11.6775 57.9124 8.67746 57.9124C4.75335 57.9124 4.25781 57.9392 4.25781 58.1267Z" fill="white"/>
<path d="M68.1683 58.0713C68.2085 58.165 69.5746 58.8481 71.2353 59.5847C72.8826 60.3347 74.4228 61.0445 74.6639 61.165C75.2532 61.4731 75.6683 61.4463 75.896 61.0981C76.3782 60.3347 77.3826 58.1516 77.3157 58.0445C77.1817 57.8302 68.1014 57.8704 68.1683 58.0713Z" fill="white"/>
<path d="M20.9322 60.7533C20.7848 60.8337 20.2089 61.2756 19.6598 61.731C19.1107 62.1864 18.2938 62.856 17.8518 63.2176C13.2714 66.914 11.517 68.3739 11.45 68.548C11.3563 68.7756 11.8116 69.2176 12.0661 69.1239C12.2134 69.0703 13.1375 68.2935 18.3206 63.9006C19.0973 63.2444 20.1956 62.3069 20.7714 61.8381C21.3339 61.356 21.8027 60.8873 21.8027 60.7801C21.8027 60.5524 21.3072 60.539 20.9322 60.7533Z" fill="white"/>
<path d="M33.3214 60.7249C32.9866 60.7784 32.1161 60.7918 31.3795 60.765L30.0268 60.6847L29.6384 61.1534C29.2366 61.6222 27.5625 63.765 25.7009 66.2025C23.692 68.8275 21.6161 71.5061 21.5357 71.5731C21.2277 71.8275 19.125 74.7874 19.125 74.9615C19.125 75.2427 19.9286 75.832 21.4018 76.6222C22.0313 76.9704 22.6875 77.3454 22.875 77.4659C23.6786 78.0016 27.4018 79.4615 29.2232 79.957C34.5 81.39 35.5446 81.5374 40.5536 81.5374C42.8571 81.5508 44.7857 81.4838 45.7098 81.3767C48.9107 80.9749 52.6071 80.0374 55.808 78.7784C56.7455 78.4168 60.6295 76.5418 60.7768 76.3945C60.817 76.3543 61.192 76.1133 61.6205 75.8588C62.0491 75.6043 62.4911 75.2829 62.6116 75.1624C62.7991 74.9481 62.7991 74.8945 62.6116 74.5999C62.3839 74.2517 58.7143 69.4704 57.0402 67.3543C55.8214 65.8008 54.2813 63.8052 53.1295 62.265C51.8304 60.5374 52.7813 60.6981 44.4107 60.7383C40.4063 60.7516 36.8973 60.7784 36.6027 60.7784C36.308 60.7784 35.5848 60.7383 34.9955 60.6981C34.4063 60.6579 33.6563 60.6713 33.3214 60.7249Z" fill="white"/>
<path d="M53.1161 60.6858C52.9821 60.7126 52.875 60.8198 52.875 60.9001C52.875 60.9939 53.317 61.6099 53.8527 62.2662C54.375 62.9358 56.6384 65.8019 58.8616 68.6278C63.2545 74.2394 63.375 74.3867 63.6429 74.3867C63.9509 74.3867 65.4643 73.1948 65.4643 72.9537C65.4643 72.8331 64.9687 72.2171 64.3661 71.5876C63.2812 70.4626 61.1518 68.159 56.625 63.2305C55.433 61.918 54.3348 60.793 54.2009 60.726C53.9598 60.5921 53.5312 60.5787 53.1161 60.6858Z" fill="white"/>
<path d="M55.418 60.7642C55.418 60.9785 65.5698 71.8669 66.0787 72.1883C66.4001 72.4026 66.4269 72.4026 66.8956 72.0142C67.8064 71.291 67.8064 71.3044 66.4001 70.0053C65.7037 69.349 63.5073 67.2865 61.5385 65.4115C56.8644 60.9651 56.4224 60.5901 55.8599 60.5901C55.5787 60.5901 55.418 60.657 55.418 60.7642Z" fill="white"/>
<path d="M57.8281 60.7768C57.8281 60.8705 59.4085 62.4241 61.3504 64.2321C66.9219 69.4152 68.1138 70.5 68.3415 70.5C68.6094 70.5 69.2121 69.9107 69.2121 69.6562C69.2121 69.5491 67.9933 68.4375 66.5067 67.2054C65.0201 65.9598 62.7299 64.0312 61.4174 62.9062C60.1049 61.7812 58.9263 60.8036 58.779 60.7232C58.404 60.5223 57.8281 60.5491 57.8281 60.7768Z" fill="white"/>
<path d="M60.1312 60.7526C60.158 60.8464 60.8544 61.4624 61.6714 62.1321C63.4526 63.5785 67.7116 67.074 68.8901 68.0517C69.8142 68.8285 70.1624 68.9222 70.4839 68.4535C70.6848 68.1722 70.6714 68.1455 70.2294 67.7437C69.6535 67.2481 62.7026 61.958 61.5642 61.1544C60.7874 60.6187 60.0241 60.4044 60.1312 60.7526Z" fill="white"/>
<path d="M21.5078 62.0776C20.6775 62.8276 18.3471 64.8767 16.3516 66.6445C14.3426 68.4124 12.6953 69.899 12.6953 69.966C12.6953 70.1133 13.4855 70.7695 13.6462 70.7695C13.8069 70.7695 14.423 70.1936 19.9007 64.9704C22.1239 62.841 23.9453 61.0061 23.9453 60.9124C23.9453 60.7919 23.7846 60.7249 23.49 60.7249C23.1016 60.7249 22.8069 60.9258 21.5078 62.0776Z" fill="white"/>
<path d="M24.9347 61.0045C24.8007 61.1652 22.39 63.5223 19.5909 66.2545C16.7918 68.9866 14.4748 71.3036 14.4615 71.4107C14.3945 71.6786 15.1043 72.375 15.4525 72.375C15.7472 72.375 16.8722 71.2366 22.5374 65.1429C26.2204 61.1786 26.3543 61.0313 26.3543 60.8705C26.3543 60.7902 26.1132 60.7232 25.7784 60.7232C25.3499 60.7232 25.1222 60.8036 24.9347 61.0045Z" fill="white"/>
<path d="M25.2589 63.2305C23.9866 64.6099 21.7902 66.9805 20.3839 68.4939C18.9777 70.0073 17.4911 71.6144 17.0759 72.0564C16.6473 72.5117 16.3125 72.9671 16.3125 73.0742C16.3125 73.3287 17.8125 74.3867 18.1741 74.3867C18.3616 74.3867 18.8304 73.9046 19.7009 72.8064C21.75 70.2483 23.3973 68.1456 24.9509 66.1501C25.7545 65.1189 27 63.5251 27.7232 62.6144C28.4464 61.7171 28.9955 60.9135 28.9554 60.8465C28.9152 60.7796 28.5937 60.726 28.2321 60.726H27.5759L25.2589 63.2305Z" fill="white"/>
</svg>
